<svg width="768" height="1003" viewBox="0 0 768 1003" fill="none" xmlns="http://www.w3.org/2000/svg">
<path d="M833.051 7.72381L833.06 7.73252L833.069 7.74067L880.669 50.0195L880.681 50.0299L880.693 50.0393C891.711 58.3573 894.464 77.7825 880.684 88.8796L880.654 88.9033L880.63 88.9321L690.239 314.408C690.238 314.41 690.236 314.412 690.234 314.414C682.177 323.268 673.592 326.02 666.144 325.893C658.682 325.765 652.333 322.745 648.778 320.004C648.775 320.002 648.773 320 648.77 319.999L503.185 195.993L503.176 195.985L503.167 195.978C497.669 191.827 494.213 184.89 493.521 177.582C492.83 170.278 494.905 162.649 500.409 157.109L500.421 157.096L500.433 157.082L542.433 106.348L542.439 106.34L542.445 106.332C546.555 100.816 553.428 98.0304 560.699 97.6818C567.965 97.3335 575.566 99.4242 581.083 103.585L659.473 171.222L659.775 171.483L660.032 171.177L794.432 10.5176L794.439 10.5091L794.445 10.5002C798.569 4.96554 805.46 1.48738 812.718 0.791606C819.971 0.0962496 827.548 2.1837 833.051 7.72381Z" stroke="#3898FE" stroke-opacity="0.11" stroke-width="0.786184"/>
<path d="M914.356 7.72381L914.365 7.73252L914.374 7.74067L961.974 50.0195L961.986 50.0299L961.998 50.0393C973.016 58.3573 975.768 77.7825 961.989 88.8796L961.959 88.9033L961.935 88.9321L771.544 314.408C771.542 314.41 771.541 314.412 771.539 314.414C763.481 323.268 754.897 326.02 747.449 325.893C739.987 325.765 733.638 322.745 730.082 320.004C730.08 320.002 730.077 320 730.075 319.999L584.49 195.993L584.481 195.985L584.472 195.978C578.974 191.827 575.517 184.89 574.826 177.582C574.135 170.278 576.21 162.649 581.714 157.109L581.726 157.096L581.737 157.082L623.738 106.348L623.744 106.34L623.75 106.332C627.86 100.816 634.733 98.0304 642.004 97.6818C649.269 97.3335 656.871 99.4242 662.388 103.585L740.778 171.222L741.08 171.483L741.336 171.177L875.737 10.5176L875.744 10.5091L875.75 10.5002C879.874 4.96554 886.765 1.48738 894.023 0.791606C901.276 0.0962496 908.853 2.1837 914.356 7.72381Z" stroke="#3898FE" stroke-opacity="0.11" stroke-width="0.786184"/>
<path d="M-122.723 602.19L-122.715 602.182L-122.707 602.174L-72.9405 546.218L-72.931 546.208L-72.9225 546.197C-63.0928 533.195 -40.1601 529.96 -27.0705 546.236L-27.049 546.263L-27.0229 546.285L238.042 770.407C238.043 770.409 238.045 770.41 238.046 770.412C248.478 779.917 251.722 790.046 251.566 798.837C251.409 807.642 247.84 815.131 244.602 819.325C244.6 819.327 244.599 819.33 244.597 819.332L98.6205 990.48L98.6137 990.488L98.6074 990.496C93.7 996.987 85.5076 1001.06 76.8869 1001.87C68.27 1002.68 59.2654 1000.22 52.7268 993.721L52.7154 993.709L52.7029 993.699L-6.93945 944.258L-6.94647 944.252L-6.95378 944.246C-13.4712 939.384 -16.7514 931.263 -17.1566 922.689C-17.5616 914.12 -15.0903 905.154 -10.1741 898.646L69.447 806.492L69.6837 806.218L69.4062 805.985L-119.46 647.774L-119.468 647.767L-119.476 647.761C-126.01 642.886 -130.108 634.749 -130.923 626.187C-131.738 617.629 -129.27 608.685 -122.723 602.19Z" stroke="#3898FE" stroke-opacity="0.11" stroke-width="0.713028"/>
<path d="M-122.659 506.557L-122.651 506.549L-122.643 506.541L-72.8766 450.586L-72.8672 450.575L-72.8586 450.564C-63.029 437.562 -40.0963 434.327 -27.0067 450.603L-26.9852 450.63L-26.959 450.652L238.105 674.774C238.107 674.776 238.109 674.777 238.11 674.779C248.542 684.284 251.786 694.413 251.63 703.205C251.473 712.009 247.904 719.498 244.666 723.692C244.664 723.695 244.663 723.697 244.661 723.699L98.6844 894.847L98.6776 894.855L98.6712 894.863C93.7639 901.354 85.5715 905.426 76.9507 906.236C68.3338 907.045 59.3292 904.592 52.7907 898.088L52.7792 898.077L52.7668 898.066L-6.8756 848.625L-6.88262 848.619L-6.88993 848.614C-13.4073 843.751 -16.6875 835.63 -17.0928 827.057C-17.4978 818.487 -15.0265 809.521 -10.1103 803.013L69.5109 710.859L69.7475 710.585L69.47 710.352L-119.396 552.141L-119.404 552.135L-119.412 552.129C-125.947 547.253 -130.044 539.116 -130.859 530.554C-131.674 521.996 -129.206 513.052 -122.659 506.557Z" stroke="#3898FE" stroke-opacity="0.11" stroke-width="0.713028"/>
</svg>
