<svg width="320" height="1046" viewBox="0 0 320 1046" fill="none" xmlns="http://www.w3.org/2000/svg">
<path d="M-90.6615 727.274L-90.6521 727.264L-90.6435 727.252C-83.8144 718.219 -67.8773 715.972 -58.7815 727.282L-58.76 727.309L-58.7339 727.331L126.433 883.897C126.435 883.899 126.437 883.9 126.438 883.902C133.702 890.521 135.955 897.567 135.846 903.677C135.737 909.8 133.255 915.008 131.005 917.924C131.004 917.926 131.002 917.928 131 917.93L29.0265 1037.49L29.0196 1037.5L29.0133 1037.5C25.6062 1042.01 19.9128 1044.84 13.9154 1045.41C7.92173 1045.97 1.66464 1044.26 -2.87669 1039.75L-2.88814 1039.73L-2.90058 1039.72L-44.5659 1005.18L-44.5729 1005.18L-44.5802 1005.17C-49.1001 1001.8 -51.3826 996.163 -51.6647 990.195C-51.9465 984.232 -50.2265 977.995 -46.8106 973.471L8.80933 909.096L9.046 908.822L8.7685 908.59L-123.171 798.066L-123.179 798.059L-123.187 798.053C-127.723 794.668 -130.574 789.013 -131.141 783.057C-131.707 777.105 -129.99 770.891 -125.443 766.38L-125.435 766.372L-125.428 766.364L-90.6615 727.274Z" stroke="#3898FE" stroke-opacity="0.11" stroke-width="0.713028"/>
<path d="M-90.617 660.466L-90.6075 660.456L-90.599 660.444C-83.7698 651.411 -67.8327 649.164 -58.7369 660.474L-58.7155 660.501L-58.6893 660.523L126.478 817.089C126.48 817.091 126.481 817.092 126.483 817.094C133.746 823.713 135.999 830.759 135.891 836.869C135.782 842.992 133.3 848.201 131.05 851.116C131.048 851.118 131.047 851.12 131.045 851.122L29.071 970.68L29.0642 970.688L29.0579 970.696C25.6508 975.203 19.9574 978.035 13.9599 978.598C7.96628 979.162 1.7092 977.455 -2.83213 972.937L-2.84358 972.926L-2.85603 972.916L-44.5213 938.377L-44.5284 938.371L-44.5357 938.365C-49.0555 934.993 -51.3381 929.355 -51.6201 923.387C-51.902 917.424 -50.182 911.187 -46.766 906.663L8.85389 842.288L9.09055 842.014L8.81306 841.782L-123.126 731.258L-123.134 731.251L-123.142 731.245C-127.679 727.86 -130.529 722.205 -131.096 716.249C-131.663 710.297 -129.946 704.083 -125.399 699.572L-125.391 699.564L-125.383 699.556L-90.617 660.466Z" stroke="#3898FE" stroke-opacity="0.11" stroke-width="0.713028"/>
<path d="M416.296 35.8715L416.308 35.8819L416.32 35.8913C424.151 41.8035 426.107 55.6151 416.31 63.5045L416.281 63.5282L416.257 63.557L280.038 224.878C280.037 224.879 280.035 224.881 280.034 224.883C274.29 231.193 268.179 233.149 262.884 233.058C257.574 232.967 253.055 230.818 250.527 228.87L146.36 140.144L146.351 140.136L146.342 140.129C142.437 137.182 139.977 132.249 139.484 127.046C138.992 121.847 140.47 116.424 144.38 112.487L144.393 112.474L144.404 112.461L174.454 76.1612L174.461 76.1534L174.467 76.1453C177.381 72.2333 182.263 70.2494 187.443 70.0011C192.617 69.7531 198.028 71.2422 201.951 74.1999L258.035 122.591L258.338 122.852L258.594 122.546L354.755 7.5968L354.762 7.58831L354.768 7.57943C357.697 3.64864 362.597 1.1729 367.763 0.677615C372.925 0.182744 378.311 1.66874 382.221 5.60497L382.23 5.61368L382.239 5.62183L416.296 35.8715Z" stroke="#3898FE" stroke-opacity="0.11" stroke-width="0.786184"/>
<path d="M474.468 35.8715L474.48 35.8819L474.492 35.8913C482.323 41.8035 484.279 55.6151 474.482 63.5045L474.453 63.5282L474.429 63.557L338.21 224.878C338.209 224.879 338.207 224.881 338.206 224.883C332.462 231.193 326.351 233.149 321.056 233.058C315.746 232.967 311.227 230.818 308.699 228.87L204.532 140.144L204.523 140.136L204.514 140.129C200.609 137.182 198.149 132.249 197.656 127.046C197.165 121.847 198.642 116.424 202.552 112.487L202.565 112.474L202.576 112.461L232.626 76.1612L232.633 76.1534L232.639 76.1453C235.554 72.2333 240.435 70.2494 245.615 70.0011C250.789 69.7531 256.2 71.2422 260.124 74.1999L316.208 122.591L316.51 122.852L316.766 122.546L412.927 7.5968L412.934 7.58831L412.94 7.57943C415.869 3.64864 420.769 1.1729 425.935 0.677615C431.097 0.182744 436.483 1.66874 440.393 5.60497L440.402 5.61368L440.411 5.62183L474.468 35.8715Z" stroke="#3898FE" stroke-opacity="0.11" stroke-width="0.786184"/>
</svg>
